<?xml version="1.0" standalone="no"?>
<!DOCTYPE svg PUBLIC "-//W3C//DTD SVG 20010904//EN"
 "http://www.w3.org/TR/2001/REC-SVG-20010904/DTD/svg10.dtd">
<svg version="1.0" xmlns="http://www.w3.org/2000/svg"
 width="1000.000000pt" height="1000.000000pt" viewBox="0 0 1000.000000 1000.000000"
 preserveAspectRatio="xMidYMid meet">
<metadata>
Created by potrace 1.14, written by Peter Selinger 2001-2017
</metadata>
<g transform="translate(0.000000,1000.000000) scale(0.100000,-0.100000)"
fill="#000000" stroke="none">
<path d="M3837 6544 c-1 -1 -55 -5 -121 -8 -65 -4 -122 -8 -126 -11 -3 -2 -22
-7 -41 -10 -193 -33 -342 -80 -475 -151 -88 -47 -118 -68 -166 -119 -16 -16
-42 -43 -58 -60 -60 -62 -124 -224 -137 -346 -11 -102 -6 -159 23 -299 9 -41
18 -85 20 -98 3 -13 11 -42 19 -65 7 -23 19 -62 25 -87 7 -24 21 -65 32 -90
11 -25 24 -54 29 -65 10 -22 49 -131 98 -270 55 -154 56 -159 67 -225 3 -19 8
-38 11 -42 9 -16 26 -141 26 -198 0 -36 -9 -146 -16 -190 -6 -36 -64 -157 -95
-198 -37 -49 -92 -100 -150 -140 -42 -28 -168 -92 -193 -98 -11 -2 -28 -6 -38
-8 -11 -3 -29 -10 -40 -16 -33 -17 -114 -30 -286 -46 -75 -7 -82 -7 -135 0
-19 2 -60 7 -91 10 -58 5 -197 34 -214 44 -5 4 -15 7 -22 8 -23 4 -148 47
-153 53 -3 3 -18 13 -35 21 -113 55 -217 156 -248 240 -64 173 12 339 197 429
77 37 136 61 136 55 0 -3 8 0 19 5 41 23 165 31 535 36 215 3 391 7 393 9 4 4
-13 45 -67 161 -15 33 -40 88 -55 122 -28 61 -29 61 -74 65 -136 12 -1149 -3
-1172 -18 -4 -2 -24 -6 -45 -9 -22 -3 -59 -10 -84 -15 -25 -5 -62 -12 -83 -15
-41 -5 -166 -43 -182 -55 -5 -4 -36 -17 -68 -30 -31 -12 -57 -26 -57 -31 0 -5
-5 -9 -12 -9 -31 0 -104 -61 -185 -154 -43 -50 -98 -178 -109 -255 -3 -20 -9
-60 -14 -90 -6 -34 -6 -67 0 -90 5 -20 12 -52 15 -71 3 -19 13 -57 22 -85 10
-27 18 -52 18 -55 3 -20 49 -92 60 -97 8 -3 15 -9 15 -15 0 -20 88 -112 148
-154 34 -24 65 -44 68 -44 3 0 28 -15 57 -32 78 -49 204 -108 229 -108 8 0 18
-4 24 -8 8 -8 108 -42 126 -43 4 0 37 -9 73 -19 77 -22 291 -67 355 -74 25 -3
62 -8 83 -11 22 -4 62 -8 90 -10 29 -2 86 -7 127 -11 94 -11 318 -11 430 -1
47 5 103 10 125 12 71 6 180 17 195 20 60 11 106 19 110 20 14 4 78 17 100 20
14 2 57 13 95 25 93 27 86 25 120 39 17 7 41 15 54 17 13 3 37 12 52 20 16 8
29 12 29 8 0 -4 7 0 16 7 9 7 21 14 28 15 42 7 286 144 294 165 2 5 10 9 18 9
15 0 214 187 214 202 0 6 13 27 28 47 16 20 38 56 49 81 12 25 28 61 37 81 9
19 18 48 21 65 4 27 6 39 21 97 4 18 12 94 16 167 3 36 -14 163 -33 255 -12
55 -22 105 -23 110 -1 6 -22 71 -46 145 -24 74 -44 137 -45 140 0 3 -6 21 -14
40 -27 71 -72 186 -80 205 -22 52 -32 80 -75 209 -25 76 -48 148 -51 160 -2
11 -7 32 -10 46 -15 63 -22 110 -18 114 3 2 6 22 8 43 1 21 9 54 18 74 19 42
89 109 115 109 10 0 22 3 26 7 3 4 13 8 20 9 8 1 37 7 65 13 27 6 69 8 93 4
24 -3 52 -7 63 -8 11 -1 24 -3 28 -4 5 0 5 -22 2 -48 -4 -27 -7 -55 -7 -63 -2
-26 13 -122 23 -147 5 -13 6 -23 3 -23 -2 0 2 -13 11 -30 8 -16 14 -31 13 -33
-5 -5 67 -91 122 -144 68 -67 189 -127 295 -148 92 -18 279 -5 332 24 11 6 23
8 25 5 3 -2 11 2 18 11 7 8 21 15 31 15 9 0 24 7 33 15 8 9 19 16 23 17 4 1
29 16 54 35 45 32 114 115 145 174 18 36 46 134 46 166 0 18 7 22 52 25 70 5
505 2 511 -3 2 -3 -9 -43 -26 -90 -17 -46 -62 -174 -100 -284 -39 -110 -79
-225 -90 -255 -11 -30 -35 -100 -54 -155 -59 -175 -135 -389 -145 -410 -5 -11
-13 -36 -19 -55 -5 -19 -26 -80 -46 -135 -20 -55 -54 -149 -75 -210 -20 -60
-60 -175 -87 -255 -28 -80 -60 -174 -73 -210 -12 -35 -28 -77 -36 -92 -8 -15
-12 -28 -9 -28 2 0 -5 -24 -16 -52 -12 -29 -22 -60 -24 -68 -2 -8 -20 -59 -40
-114 -20 -54 -33 -101 -30 -104 8 -9 406 -7 495 1 107 10 147 20 212 51 82 41
71 29 404 431 111 135 153 185 220 264 16 20 41 50 55 67 36 47 240 290 274
328 6 6 37 45 70 86 33 41 74 91 92 110 18 19 33 38 33 41 0 4 12 20 28 36 37
39 72 80 107 128 17 22 35 44 42 48 7 4 26 27 43 50 16 23 45 60 65 82 l35 40
-14 -40 c-7 -22 -32 -85 -54 -140 -22 -55 -57 -143 -77 -195 -20 -52 -51 -133
-70 -180 -35 -89 -144 -367 -197 -505 -17 -44 -37 -93 -44 -110 -44 -106 -92
-248 -98 -292 -3 -28 -9 -58 -12 -67 -6 -17 12 -117 24 -126 4 -3 14 -18 22
-35 9 -16 34 -40 56 -52 53 -29 193 -61 252 -58 51 3 131 23 146 37 6 4 18 8
28 8 10 0 18 5 18 11 0 5 4 8 9 5 12 -8 102 63 149 117 20 23 69 76 107 117
39 42 153 167 255 280 102 112 217 238 255 280 39 42 111 121 160 175 50 55
119 131 155 170 36 38 85 91 108 117 23 26 42 45 42 42 0 -6 -44 -121 -65
-169 -15 -34 -83 -212 -146 -380 -12 -33 -30 -79 -41 -102 -10 -23 -18 -47
-18 -53 0 -5 -4 -18 -10 -28 -14 -26 -72 -175 -74 -192 -1 -8 -8 -35 -15 -60
-23 -76 -27 -127 -17 -179 20 -98 119 -147 321 -159 150 -8 822 -8 933 1 167
13 314 70 395 152 36 37 123 182 114 191 -2 2 -221 6 -487 9 -266 3 -486 8
-489 10 -2 3 31 96 73 207 76 200 91 239 176 468 77 206 77 206 117 304 14 33
27 67 29 75 5 22 52 149 68 186 8 17 23 57 34 90 11 33 27 76 35 95 8 19 14
53 12 75 -1 22 2 45 7 52 12 14 -14 139 -38 186 -19 35 -73 87 -91 87 -7 0
-13 4 -13 8 0 5 -18 17 -41 27 -40 19 -170 25 -272 15 -83 -9 -210 -90 -311
-198 -29 -32 -234 -240 -679 -691 -109 -111 -200 -201 -202 -201 -4 0 7 32 43
125 34 88 102 268 128 340 14 39 31 84 38 100 8 17 44 109 81 205 37 96 71
184 75 195 12 29 45 119 46 125 0 3 6 25 14 50 20 67 20 69 24 145 5 99 -19
161 -87 221 -69 60 -132 82 -228 78 -41 -1 -85 -5 -99 -9 -14 -4 -35 -8 -47
-10 -57 -8 -94 -20 -160 -50 -40 -19 -73 -38 -73 -44 0 -5 -9 -13 -21 -16 -20
-7 -194 -177 -254 -250 -16 -19 -47 -53 -67 -74 -21 -21 -38 -41 -38 -44 0 -3
-15 -21 -32 -40 -18 -19 -51 -56 -73 -82 -22 -26 -61 -68 -87 -95 -27 -26 -48
-50 -48 -53 0 -3 -14 -21 -31 -39 -16 -18 -51 -57 -77 -86 -26 -29 -63 -70
-82 -91 -19 -20 -48 -54 -65 -75 -16 -21 -49 -57 -72 -80 -24 -22 -43 -45 -43
-49 0 -4 -21 -29 -47 -55 -40 -39 -73 -78 -113 -130 -3 -4 -15 -15 -27 -26
l-22 -18 19 48 c50 127 90 241 90 255 0 8 4 19 9 24 5 6 18 39 29 75 11 36 37
110 57 165 39 109 76 214 79 230 2 6 8 21 14 35 6 14 41 113 77 220 37 107 73
209 80 225 25 56 47 160 50 235 6 121 -25 181 -115 223 -45 21 -52 21 -847 22
-770 0 -803 -1 -816 -19 -13 -17 -15 -17 -63 -1 -44 16 -100 18 -507 20 -251
1 -458 1 -460 -1z"/>
</g>
</svg>
